<mxfile host="65bd71144e">
    <diagram id="mAHxvKxOPxoxyW0gNafL" name="ページ1">
        <mxGraphModel dx="910" dy="794" grid="1" gridSize="10" guides="1" tooltips="1" connect="1" arrows="1" fold="1" page="1" pageScale="1" pageWidth="827" pageHeight="1169" math="0" shadow="0">
            <root>
                <mxCell id="0"/>
                <mxCell id="1" parent="0"/>
                <mxCell id="2" value="" style="whiteSpace=wrap;html=1;aspect=fixed;fillColor=none;" vertex="1" parent="1">
                    <mxGeometry x="40" y="40" width="330" height="330" as="geometry"/>
                </mxCell>
                <mxCell id="5" value="リバーシで学ぶアプリケーション設計入門" style="rounded=0;whiteSpace=wrap;html=1;fillColor=none;" vertex="1" parent="1">
                    <mxGeometry x="40" y="40" width="330" height="40" as="geometry"/>
                </mxCell>
                <mxCell id="6" value="対戦する" style="rounded=1;whiteSpace=wrap;html=1;fillColor=none;" vertex="1" parent="1">
                    <mxGeometry x="155" y="120" width="100" height="40" as="geometry"/>
                </mxCell>
                <mxCell id="7" value="過去の対戦結果" style="rounded=0;whiteSpace=wrap;html=1;fillColor=none;" vertex="1" parent="1">
                    <mxGeometry x="70" y="190" width="270" height="140" as="geometry"/>
                </mxCell>
                <mxCell id="8" value="" style="whiteSpace=wrap;html=1;aspect=fixed;fillColor=none;" vertex="1" parent="1">
                    <mxGeometry x="420" y="40" width="330" height="330" as="geometry"/>
                </mxCell>
                <mxCell id="9" value="リバーシで学ぶアプリケーション設計入門" style="rounded=0;whiteSpace=wrap;html=1;fillColor=none;" vertex="1" parent="1">
                    <mxGeometry x="420" y="40" width="330" height="40" as="geometry"/>
                </mxCell>
                <mxCell id="10" value="白の番はスキップです" style="rounded=1;whiteSpace=wrap;html=1;fillColor=none;" vertex="1" parent="1">
                    <mxGeometry x="482.5" y="100" width="205" height="40" as="geometry"/>
                </mxCell>
                <mxCell id="11" value="盤面" style="rounded=0;whiteSpace=wrap;html=1;fillColor=none;" vertex="1" parent="1">
                    <mxGeometry x="502.5" y="160" width="165" height="150" as="geometry"/>
                </mxCell>
                <mxCell id="12" value="次は黒の番です" style="text;html=1;strokeColor=none;fillColor=none;align=center;verticalAlign=middle;whiteSpace=wrap;rounded=0;" vertex="1" parent="1">
                    <mxGeometry x="492.5" y="320" width="185" height="30" as="geometry"/>
                </mxCell>
            </root>
        </mxGraphModel>
    </diagram>
</mxfile>
